<?xml version="1.0" encoding="utf-8"?>
<!-- Generator: Adobe Illustrator 18.0.0, SVG Export Plug-In . SVG Version: 6.00 Build 0)  -->
<!DOCTYPE svg PUBLIC "-//W3C//DTD SVG 1.1//EN" "http://www.w3.org/Graphics/SVG/1.1/DTD/svg11.dtd">
<svg version="1.1" id="Ebene_1" xmlns="http://www.w3.org/2000/svg" xmlns:xlink="http://www.w3.org/1999/xlink" x="0px" y="0px"
	 viewBox="0 -2.9 21.1 20.9" enable-background="new 0 -2.9 21.1 20.9" xml:space="preserve">
<title>Mail Icon</title>
<path opacity="0.7" fill="#FFFFFF" d="M10.6,1.3c-3.5,0-6.3,2.8-6.3,6.3s2.8,6.3,6.3,6.3s6.3-2.8,6.3-6.3S14,1.3,10.6,1.3z
	 M10.6,2.3c2.9,0,5.3,2.4,5.3,5.3s-2.4,5.3-5.3,5.3s-5.3-2.4-5.3-5.3S7.6,2.3,10.6,2.3z M7.2,4.8l3.4,2.4L14,4.8h-3.4H7.2z M6.6,5.3
	v4.5L9,7L6.6,5.3z M14.6,5.3L12.1,7l2.5,2.7V5.3z M9.7,7.5l-2.6,2.8h3.5h3.5l-2.6-2.8l-0.9,0.7L9.7,7.5z"/>
</svg>
